<svg width="176" height="33" viewBox="0 0 176 33" fill="none" xmlns="http://www.w3.org/2000/svg">
<path d="M30.3359 13.0808L20.1641 12.0066L16 2.66675L11.8359 12.0066L1.66406 13.0808L9.26172 19.9285L7.14062 29.9324L16 24.823L24.8594 29.9324L22.7383 19.9285L30.3359 13.0808Z" fill="#F56064"/>
<path d="M66.3359 13.0808L56.1641 12.0066L52 2.66675L47.8359 12.0066L37.6641 13.0808L45.2617 19.9285L43.1406 29.9324L52 24.823L60.8594 29.9324L58.7383 19.9285L66.3359 13.0808Z" fill="#F56064"/>
<path d="M102.336 13.0808L92.1641 12.0066L88 2.66675L83.8359 12.0066L73.6641 13.0808L81.2617 19.9285L79.1406 29.9324L88 24.823L96.8594 29.9324L94.7383 19.9285L102.336 13.0808Z" fill="#F56064"/>
<path d="M138.336 13.0808L128.164 12.0066L124 2.66675L119.836 12.0066L109.664 13.0808L117.262 19.9285L115.141 29.9324L124 24.823L132.859 29.9324L130.738 19.9285L138.336 13.0808Z" fill="#F56064"/>
<path d="M174.336 13.0808L164.164 12.0066L160 2.66675L155.836 12.0066L145.664 13.0808L153.262 19.9285L151.141 29.9324L160 24.823L168.859 29.9324L166.738 19.9285L174.336 13.0808Z" fill="#F56064"/>
</svg>
