<svg width="70" height="456" viewBox="0 0 70 456" fill="none" xmlns="http://www.w3.org/2000/svg">
<g clip-path="url(#clip0_130_932)">
<rect width="70" height="456" fill="white"/>
<path fill-rule="evenodd" clip-rule="evenodd" d="M21.479 2.11945C16.289 2.11945 12.049 6.35944 12.049 11.5595C12.049 16.4595 19.829 24.8494 20.719 25.7894C20.919 25.9995 21.199 26.1195 21.479 26.1195C21.769 26.1195 22.049 25.9995 22.249 25.7894C23.129 24.8494 30.919 16.4595 30.919 11.5595C30.919 6.35944 26.679 2.11945 21.479 2.11945ZM21.489 14.9794C19.269 14.9794 17.459 13.1694 17.459 10.9495C17.459 8.71949 19.269 6.91944 21.489 6.91944C23.699 6.91944 25.509 8.71949 25.509 10.9495C25.509 13.1694 23.699 14.9794 21.489 14.9794ZM18 69.7223L18 61.0001L24 61.0001L24 69.7223L18 69.7223ZM18 104.611L18 87.1668L24 87.1668L24 104.611L18 104.611ZM18 139.5L18 122.056L24 122.056L24 139.5L18 139.5ZM18 174.389L18 156.945L24 156.945L24 174.389L18 174.389ZM18 209.278L18 191.833L24 191.833L24 209.278L18 209.278ZM18 244.167L18 226.722L24 226.722L24 244.167L18 244.167ZM18 279.056L18 261.611L24 261.611L24 279.056L18 279.056ZM18 313.945L18 296.5L24 296.5L24 313.945L18 313.945ZM18 348.833L18 331.389L24 331.389L24 348.833L18 348.833ZM18 375L18 366.278L22.3731 366.278L32.2101 329.565L34.0792 330.066L33.4968 332.24C37.3902 334.046 40.9129 334.395 44.295 334.73C48.1356 335.11 51.795 335.473 55.6101 337.932L51.0095 355.101C47.1899 352.813 43.095 352.352 39.0713 351.9C35.5387 351.503 32.0611 351.112 28.873 349.496L24 367.682L24 375L18 375ZM49.639 340.944C51.0096 341.311 51.7041 341.544 52.9932 342.216L53.9599 338.608C52.6708 337.936 51.9763 337.704 50.6057 337.336L49.639 340.944ZM48.6839 344.508L49.639 340.944C48.2822 340.581 47.5652 340.434 46.1763 340.244L45.2199 343.813C44.5112 343.716 43.9717 343.653 43.4321 343.59C42.8925 343.527 42.353 343.464 41.6444 343.368L42.6111 339.76C43.9608 339.901 44.6864 340.001 45.9573 340.174L46.1436 340.2L47.1 336.63L46.8707 336.599C45.5999 336.425 44.8743 336.326 43.5245 336.184L42.5578 339.792C41.2081 339.651 40.4825 339.551 39.2117 339.378L38.9823 339.347L39.949 335.739C38.5318 335.545 37.8141 335.4 36.4434 335.032L35.4767 338.64C34.1061 338.273 33.4116 338.04 32.1225 337.369L31.1558 340.976C32.4449 341.648 33.1394 341.881 34.51 342.248L33.5433 345.856C32.1727 345.488 31.4783 345.256 30.1891 344.584L29.2224 348.192C30.5116 348.863 31.206 349.096 32.5767 349.463L33.5433 345.856C34.914 346.223 35.6317 346.369 37.049 346.562L36.0823 350.17C37.2665 350.369 37.979 350.442 39.0285 350.55L39.029 350.55L39.3345 350.582C39.4385 350.592 39.546 350.604 39.6578 350.615L40.621 347.021C39.3261 346.884 38.6046 346.785 37.3608 346.615L37.3593 346.615L37.1322 346.584L38.0988 342.976C38.7735 343.069 39.2855 343.128 39.7942 343.186L39.7952 343.186C40.3548 343.251 40.9104 343.315 41.6743 343.422L40.7112 347.017C42.0059 347.154 42.7273 347.252 43.9706 347.422L44.2 347.453L43.2333 351.061C44.6505 351.254 45.3683 351.4 46.7389 351.767L47.7056 348.16C49.0762 348.527 49.7707 348.76 51.0598 349.431L52.0265 345.823C50.7504 345.159 50.0571 344.924 48.7137 344.563L47.7587 348.127C46.388 347.76 45.6703 347.614 44.2531 347.421L45.2199 343.813C46.6226 344.005 47.3401 344.149 48.6839 344.508ZM39.0655 339.369C37.6482 339.175 36.9305 339.03 35.5598 338.662L34.5932 342.27C35.9638 342.637 36.6815 342.783 38.0988 342.977L39.0655 339.369Z" fill="#ECEDEE"/>
</g>
<defs>
<clipPath id="clip0_130_932">
<rect width="70" height="456" fill="white"/>
</clipPath>
</defs>
</svg>
