<svg width="1318" height="547" viewBox="0 0 1318 547" fill="none" xmlns="http://www.w3.org/2000/svg">
<g clip-path="url(#clip0_130_930)">
<rect width="1318" height="547" fill="white"/>
<path d="M1025.18 319.477C950.668 456.542 806.401 435.477 757.722 386.477C701.924 330.311 723.917 251.977 691.604 146.977C659.291 41.9768 504.781 88.259 451.491 133.977C398.201 179.695 370.944 255.105 356.54 319.477C316.308 499.269 8.16931 453.39 26.446 146.977" stroke="#ECEDEE" stroke-width="6" stroke-dasharray="17 17"/>
<path d="M1024.23 266.352V264.102H1022.31V306.852H1024.23V284.217C1031.67 285.792 1038.94 281.607 1046.94 283.902C1046.94 276.792 1046.94 273.237 1046.94 266.127C1038.86 263.517 1033.21 267.927 1024.23 266.352ZM1045.53 270.942C1044.11 270.627 1043.39 270.582 1041.98 270.582C1041.98 272.067 1041.98 272.832 1041.98 274.317C1043.39 274.317 1044.11 274.362 1045.53 274.677C1045.53 276.162 1045.53 276.927 1045.53 278.412C1044.11 278.097 1043.39 278.052 1041.98 278.052C1041.98 279.537 1041.98 280.302 1041.98 281.787C1040.57 281.787 1039.84 281.832 1038.43 282.012C1038.43 280.527 1038.43 279.762 1038.43 278.277C1037.02 278.457 1036.29 278.547 1034.88 278.772C1034.88 280.257 1034.88 281.022 1034.88 282.507C1033.47 282.732 1032.74 282.867 1031.33 283.002C1031.33 281.517 1031.33 280.752 1031.33 279.267C1029.92 279.447 1029.19 279.492 1027.78 279.492C1027.78 280.977 1027.78 281.742 1027.78 283.227C1026.37 283.227 1025.65 283.182 1024.23 282.867C1024.23 281.382 1024.23 280.617 1024.23 279.132C1025.65 279.447 1026.37 279.492 1027.78 279.492C1027.78 278.007 1027.78 277.242 1027.78 275.757C1026.37 275.757 1025.65 275.712 1024.23 275.397C1024.23 273.912 1024.23 273.147 1024.23 271.662C1025.65 271.977 1026.37 272.022 1027.78 272.022C1027.78 270.537 1027.78 269.772 1027.78 268.287C1029.19 268.287 1029.92 268.242 1031.33 268.062C1031.33 269.547 1031.33 270.312 1031.33 271.797C1032.74 271.617 1033.47 271.527 1034.88 271.302C1034.88 269.817 1034.88 269.052 1034.88 267.567C1036.29 267.342 1037.02 267.252 1038.43 267.072C1038.43 268.557 1038.43 269.322 1038.43 270.807C1039.84 270.627 1040.57 270.582 1041.98 270.582C1041.98 269.097 1041.98 268.332 1041.98 266.847C1043.39 266.847 1044.11 266.892 1045.53 267.207C1045.53 268.692 1045.53 269.457 1045.53 270.942Z" fill="#ECEDEE"/>
<path d="M1031.42 271.797C1030.01 271.977 1029.28 272.022 1027.87 272.022C1027.87 273.507 1027.87 274.272 1027.87 275.757C1029.28 275.757 1030.01 275.712 1031.42 275.532C1031.42 274.047 1031.42 273.282 1031.42 271.797Z" fill="#ECEDEE"/>
<path d="M1038.47 274.497C1038.47 273.012 1038.47 272.247 1038.47 270.762C1037.06 270.942 1036.33 271.032 1034.92 271.257C1034.92 272.742 1034.92 273.507 1034.92 274.992C1036.33 274.812 1037.06 274.677 1038.47 274.497Z" fill="#ECEDEE"/>
<path d="M1031.42 275.532C1031.42 277.017 1031.42 277.782 1031.42 279.267C1032.83 279.087 1033.55 278.997 1034.97 278.772C1034.97 277.287 1034.97 276.522 1034.97 275.037C1033.51 275.217 1032.83 275.352 1031.42 275.532Z" fill="#ECEDEE"/>
<path d="M1038.47 278.232C1039.88 278.052 1040.61 278.007 1042.02 278.007C1042.02 276.522 1042.02 275.757 1042.02 274.272C1040.61 274.272 1039.88 274.317 1038.47 274.497C1038.47 275.982 1038.47 276.747 1038.47 278.232Z" fill="#ECEDEE"/>
<path d="M107.886 353.75H107.171C107.215 353.319 107.566 352.981 108.006 352.981H108.964V370.491C108.964 371.301 109.534 371.976 110.302 372.138V374.612C110.302 375.366 110.91 375.977 111.659 375.977H113.661C114.41 375.977 115.018 375.366 115.018 374.612V372.175H124.278V374.612C124.278 375.366 124.886 375.977 125.643 375.977H127.634C128.383 375.977 128.998 375.366 128.998 374.612V372.168C129.885 372.13 130.597 371.388 130.597 370.491V352.981H131.63C132.07 352.981 132.42 353.322 132.465 353.75H131.678V357.574H134.076V353.75H133.408C133.364 352.801 132.588 352.04 131.63 352.04H130.597V347.709C130.597 347.492 130.448 347.304 130.243 347.248C123.302 345.553 116.256 345.553 109.314 347.248C109.109 347.304 108.96 347.492 108.96 347.709V352.04H108.006C107.048 352.04 106.272 352.801 106.227 353.75H105.489V357.574H107.886V353.75ZM115.421 367.938H112.136V365.85H115.421V367.938ZM121.971 368.804H117.329V367.863H121.971V368.804ZM121.971 367.364H117.329V366.423H121.971V367.364ZM127.425 367.938H124.133V365.85H127.425V367.938ZM120.256 348.969C123.399 348.999 126.534 349.363 129.665 350.079V360.656H120.256V348.969ZM121.971 364.983V365.925H117.329V364.983H121.971ZM109.903 350.079C113.046 349.363 116.189 348.995 119.324 348.969V360.656H109.903V350.079Z" fill="#ECEDEE"/>
<path d="M460.848 86.7498H460.132C460.177 86.3186 460.527 85.9812 460.967 85.9812H461.925V103.491C461.925 104.301 462.496 104.976 463.264 105.138V107.612C463.264 108.366 463.871 108.977 464.621 108.977H466.622C467.372 108.977 467.979 108.366 467.979 107.612V105.175H477.24V107.612C477.24 108.366 477.847 108.977 478.604 108.977H480.595C481.344 108.977 481.959 108.366 481.959 107.612V105.168C482.847 105.13 483.559 104.388 483.559 103.491V85.9812H484.591C485.031 85.9812 485.382 86.3224 485.427 86.7498H484.64V90.5744H487.037V86.7498H486.37C486.325 85.8012 485.55 85.04 484.591 85.04H483.559V80.7093C483.559 80.4919 483.41 80.3044 483.205 80.2481C476.263 78.5534 469.217 78.5534 462.276 80.2481C462.071 80.3044 461.921 80.4919 461.921 80.7093V85.04H460.967C460.009 85.04 459.234 85.8012 459.189 86.7498H458.451V90.5744H460.848V86.7498ZM468.382 100.938H465.098V98.8496H468.382V100.938ZM474.932 101.804H470.291V100.863H474.932V101.804ZM474.932 100.364H470.291V99.4232H474.932V100.364ZM480.386 100.938H477.094V98.8496H480.386V100.938ZM473.217 81.9692C476.36 81.9992 479.495 82.3629 482.627 83.079V93.6565H473.217V81.9692ZM474.932 97.9834V98.9246H470.291V97.9834H474.932ZM462.865 83.079C466.007 82.3629 469.15 81.9954 472.285 81.9692V93.6565H462.865V83.079Z" fill="#ECEDEE"/>
<path d="M773.045 369.75H772.329C772.374 369.319 772.724 368.981 773.164 368.981H774.122V386.491C774.122 387.301 774.693 387.976 775.461 388.138V390.612C775.461 391.366 776.068 391.977 776.818 391.977H778.82C779.569 391.977 780.177 391.366 780.177 390.612V388.175H789.437V390.612C789.437 391.366 790.045 391.977 790.802 391.977H792.792C793.542 391.977 794.157 391.366 794.157 390.612V388.168C795.044 388.13 795.756 387.388 795.756 386.491V368.981H796.789C797.229 368.981 797.579 369.322 797.624 369.75H796.837V373.574H799.234V369.75H798.567C798.522 368.801 797.747 368.04 796.789 368.04H795.756V363.709C795.756 363.492 795.607 363.304 795.402 363.248C788.46 361.553 781.414 361.553 774.473 363.248C774.268 363.304 774.119 363.492 774.119 363.709V368.04H773.164C772.206 368.04 771.431 368.801 771.386 369.75H770.648V373.574H773.045V369.75ZM780.579 383.938H777.295V381.85H780.579V383.938ZM787.129 384.804H782.488V383.863H787.129V384.804ZM787.129 383.364H782.488V382.423H787.129V383.364ZM792.584 383.938H789.292V381.85H792.584V383.938ZM785.415 364.969C788.557 364.999 791.693 365.363 794.824 366.079V376.656H785.415V364.969ZM787.129 380.983V381.925H782.488V380.983H787.129ZM775.062 366.079C778.205 365.363 781.347 364.995 784.483 364.969V376.656H775.062V366.079Z" fill="#ECEDEE"/>
<path d="M26.3759 96.9771C21.2157 96.9771 17 101.217 17 106.417C17 111.317 24.7354 119.707 25.6203 120.647C25.8191 120.857 26.0975 120.977 26.3759 120.977C26.6642 120.977 26.9426 120.857 27.1414 120.647C28.0164 119.707 35.7617 111.317 35.7617 106.417C35.7617 101.217 31.546 96.9771 26.3759 96.9771ZM26.3858 109.837C24.1786 109.837 22.379 108.027 22.379 105.807C22.379 103.577 24.1786 101.777 26.3858 101.777C28.5831 101.777 30.3827 103.577 30.3827 105.807C30.3827 108.027 28.5831 109.837 26.3858 109.837Z" fill="#ECEDEE"/>
</g>
<defs>
<clipPath id="clip0_130_930">
<rect width="1318" height="547" fill="white"/>
</clipPath>
</defs>
</svg>
