<svg xmlns="http://www.w3.org/2000/svg" viewBox="0 0 493.99 493.99"><defs><style>.cls-1{fill:#ffbd39;}</style></defs><title>b-cell</title><g id="Layer_2" data-name="Layer 2"><g id="Layer_1-2" data-name="Layer 1"><rect class="cls-1" x="266.49" y="24.01" width="44.9" height="8.89" transform="translate(64.51 212.65) rotate(-45)"/><rect class="cls-1" x="217.6" y="6" width="8.89" height="44.9" transform="translate(44.92 165.35) rotate(-45)"/><rect class="cls-1" x="286.49" y="443.09" width="8.89" height="44.9" transform="translate(-243.97 342.08) rotate(-45)"/><rect class="cls-1" x="201.6" y="461.09" width="44.9" height="8.89" transform="translate(-263.56 294.78) rotate(-45)"/><rect class="cls-1" x="24.01" y="193.6" width="8.89" height="44.9" transform="translate(-144.44 83.4) rotate(-45)"/><rect class="cls-1" x="6" y="278.49" width="44.9" height="8.89" transform="translate(-191.74 102.99) rotate(-45)"/><rect class="cls-1" x="443.09" y="209.6" width="44.9" height="8.89" transform="translate(-15 391.88) rotate(-45)"/><path class="cls-1" d="M459.3,249.74H401.65c0-.83,0-1.66,0-2.49,0-.65,0-1.31,0-2H459.3v0l.1.09L494,210.75l-6.29-6.29-31.92,31.93H401.3a153.88,153.88,0,0,0-37.16-90.1l38.78-38.78H448V98.62H399.13v.13h0l-41,41c-1-1.07-2.08-2.11-3.14-3.15l41-41,0,0h.13V46.65h-8.89V91.8l-38.75,38.75A153.88,153.88,0,0,0,266.6,94V38.21L298.53,6.29,292.24,0,257.65,34.59l.09.1h0V93.1c-1.48-.09-3-.17-4.45-.23V34.69h0l.09-.1L218.75,0l-6.28,6.29,31.9,31.91V92.78a153.88,153.88,0,0,0-98.3,37.64L107.93,92.28V47.16H99V96.07h.14v0l40.36,40.36c-1.07,1-2.11,2.08-3.15,3.14L96,99.23l0,0v-.13H47.07V108H92.22l38.13,38.13a153.91,153.91,0,0,0-37.41,92.25H38.21L6.29,206.46,0,212.75l34.59,34.59.1-.09v0h58c0,1.49,0,3,.07,4.45H34.69l-.1-.09L0,286.24l6.29,6.28,31.91-31.9H93.27A153.84,153.84,0,0,0,131.82,350L93.34,388.48H48.19v8.89H97.11v-.13l0,0,40.78-40.79c1.05,1,2.12,2.08,3.19,3.1L100.28,400.4h-.12v48.92h8.89V404.21l38.72-38.71a153.81,153.81,0,0,0,98.6,36.23v54.06l-31.9,31.91,6.28,6.29,34.59-34.59-.09-.1h0V401.53c1.49-.08,3-.18,4.45-.3V459.3h0l-.09.1L294.24,494l6.29-6.29L268.6,455.78V400.26a153.89,153.89,0,0,0,78.15-34.89l39.32,39.32v45.15H395V400.92h-.14l0,0-41.46-41.45q1.62-1.53,3.19-3.1L398,397.75h0v.13h48.92V389H401.8l-39.13-39.13a153.79,153.79,0,0,0,38.59-91.23h54.53l31.91,31.9,6.29-6.28L459.4,249.65Z"/><rect class="cls-1" x="461.09" y="258.49" width="8.89" height="44.9" transform="translate(-62.3 411.47) rotate(-45)"/><rect class="cls-1" x="48.2" y="375.14" width="44.9" height="8.89"/><rect class="cls-1" x="113.5" y="404.43" width="8.89" height="44.9"/><rect class="cls-1" x="373.85" y="46.65" width="8.89" height="44.9"/><rect class="cls-1" x="403.15" y="111.96" width="44.9" height="8.89"/><rect class="cls-1" x="47.07" y="112.46" width="44.9" height="8.89"/><rect class="cls-1" x="112.37" y="47.16" width="8.89" height="44.9"/><rect class="cls-1" x="372.72" y="404.94" width="8.89" height="44.9"/><rect class="cls-1" x="402.02" y="375.64" width="44.9" height="8.89"/></g></g></svg>