<svg xmlns="http://www.w3.org/2000/svg" viewBox="0 0 505 505"><defs><style>.cls-1{fill:#e4007c;}</style></defs><title>t-cell</title><g id="Layer_2" data-name="Layer 2"><g id="Layer_1-2" data-name="Layer 1"><path class="cls-1" d="M505,249v-9H407.45a153.83,153.83,0,0,0-38.66-89.84l69.39-69.38-6.37-6.37-69.2,69.21c-.95-.94-1.9-1.87-2.87-2.79L429,71.58l-6.37-6.36L353,134.83a153.84,153.84,0,0,0-80.89-35.21V0h-9V98.81c-1.32-.08-2.66-.15-4-.19V0h-9V98.55A153.86,153.86,0,0,0,151.46,137L81.09,66.63,74.73,73l70.14,70.15c-.94.93-1.88,1.88-2.81,2.84L71.9,75.83l-6.37,6.36L136,152.67A153.87,153.87,0,0,0,99.39,242H0v9H99c0,.67,0,1.33,0,2s0,1.33,0,2H0v9H99.39a153.94,153.94,0,0,0,37.23,90.05L67,423.72l6.36,6.37,69.41-69.41c.93,1,1.87,1.9,2.82,2.83l-69.4,69.41,6.36,6.36,69.66-69.66a153.9,153.9,0,0,0,100,37.87V505h9V407.31c1.34-.06,2.68-.14,4-.24V505h9V406.13a153.77,153.77,0,0,0,81.22-37l68.7,68.7,6.36-6.37L361.94,363c.95-.94,1.89-1.88,2.81-2.84l68.48,68.47,6.36-6.36-68.78-68.78A153.75,153.75,0,0,0,407.73,262H505v-9H408c0-1.34,0-2.67-.05-4Z"/></g></g></svg>