<?xml version="1.0" encoding="UTF-8"?>
<svg width="173px" height="173px" viewBox="0 0 173 173" version="1.1" xmlns="http://www.w3.org/2000/svg" xmlns:xlink="http://www.w3.org/1999/xlink">
    <!-- Generator: Sketch 58 (84663) - https://sketch.com -->
    <title>t-cell</title>
    <desc>Created with Sketch.</desc>
    <g id="Page-1" stroke="none" stroke-width="1" fill="none" fill-rule="evenodd" fill-opacity="0.15">
        <g id="Large-Devices:-Desktops---12-col-Copy-9" transform="translate(-649.000000, -36.000000)" fill="#FFFFFF" fill-rule="nonzero">
            <path d="M822,121.30099 L822,118.217822 L788.581881,118.217822 C787.632959,106.791262 782.983209,95.9859433 775.33796,87.4409505 L799.109188,63.6731485 L796.92699,61.4909505 L773.220851,85.2005149 C772.895406,84.878495 772.56996,84.559901 772.237663,84.2447327 L795.964356,60.5214653 L793.782158,58.3426931 L769.928713,82.1892871 C762.06742,75.5495279 752.434314,71.3564057 742.217881,70.1272475 L742.217881,36 L739.134713,36 L739.134713,69.8497624 C738.682515,69.8223564 738.223465,69.7983762 737.764416,69.7846733 L737.764416,36 L734.681248,36 L734.681248,69.7606931 C722.212716,70.0150521 710.238263,74.6822361 700.886297,82.9326733 L676.779347,58.8257228 L674.600574,61.0079208 L698.628733,85.039505 C698.306713,85.358099 697.984693,85.6835446 697.666099,86.0124158 L673.631089,61.9774059 L671.448891,64.1561782 L695.590099,88.3008119 C688.23488,96.8919578 683.83783,107.620953 683.048455,118.90297 L649,118.90297 L649,121.986139 L682.914851,121.986139 C682.914851,122.215663 682.914851,122.441762 682.914851,122.671287 C682.914851,122.900812 682.914851,123.126911 682.914851,123.356436 L649,123.356436 L649,126.439604 L683.048455,126.439604 C683.847285,137.832295 688.322941,148.657783 695.802495,157.288416 L671.952475,181.155564 L674.131248,183.337762 L697.909327,159.559683 C698.227921,159.902257 698.549941,160.210574 698.875386,160.529168 L675.100733,184.307248 L677.279505,186.48602 L701.143228,162.622297 C710.644718,170.902278 722.79795,175.504707 735.400653,175.595584 L735.400653,209 L738.483822,209 L738.483822,175.533921 C738.942871,175.513366 739.401921,175.48596 739.854119,175.451703 L739.854119,209 L742.937287,209 L742.937287,175.129683 C753.261071,173.748283 762.943624,169.337369 770.761168,162.454436 L794.29602,185.989287 L796.474792,183.807089 L772.991327,160.354455 C773.316772,160.032436 773.638792,159.710416 773.95396,159.381545 L797.413446,182.837604 L799.592218,180.658832 L776.02996,157.096574 C783.574392,148.322233 788.019275,137.307544 788.677802,125.754455 L822,125.754455 L822,122.671287 L788.770297,122.671287 C788.770297,122.212238 788.770297,121.756614 788.753168,121.30099 L822,121.30099 Z" id="t-cell"></path>
        </g>
    </g>
</svg>