<?xml version="1.0" encoding="UTF-8"?>
<svg width="144px" height="144px" viewBox="0 0 144 144" version="1.1" xmlns="http://www.w3.org/2000/svg" xmlns:xlink="http://www.w3.org/1999/xlink">
    <!-- Generator: Sketch 58 (84663) - https://sketch.com -->
    <title>b-cell</title>
    <desc>Created with Sketch.</desc>
    <g id="Page-1" stroke="none" stroke-width="1" fill="none" fill-rule="evenodd" fill-opacity="0.15">
        <g id="Large-Devices:-Desktops---12-col-Copy-9" transform="translate(-787.000000, -328.000000)" fill="#FFFFFF" fill-rule="nonzero">
            <path d="M872.187368,328 L874.020891,329.833522 L864.71336,339.138138 L864.71336,355.40081 C873.34505,356.478419 881.4726,360.041889 888.109685,365.650941 L888.581215,366.055061 L899.876761,354.759514 L899.876761,341.598381 L902.468178,341.598381 L902.468178,355.867206 L902.430283,355.867206 L890.478866,367.818623 C890.684858,368.020729 890.893441,368.222834 891.095978,368.42753 L891.39417,368.736842 L903.345587,356.785425 L903.345587,356.74753 L917.591093,356.74753 L917.591093,359.338947 L904.450364,359.338947 L893.146073,370.643239 C899.374545,377.839886 903.148994,386.826914 903.932213,396.301778 L903.978138,396.907206 L919.861862,396.907206 L929.166478,387.599676 L931,389.433198 L920.91417,399.516113 L920.88502,399.489879 L904.080162,399.489879 L904.080162,400.798704 L920.88502,400.798704 L920.91417,400.77247 L930.997085,410.861215 L929.163563,412.691822 L919.861862,403.393036 L903.966478,403.393036 C903.266958,413.054233 899.457585,422.223328 893.117139,429.532037 L892.717571,429.986397 L904.123887,441.392713 L917.276275,441.392713 L917.276275,443.981215 L903.016194,443.981215 L903.016194,443.94332 L890.945263,431.881134 L890.483968,432.33587 L890.015385,432.784777 L902.100891,444.867368 L902.1417,444.867368 L902.1417,459.127449 L899.538623,459.127449 L899.538623,445.966316 L888.076923,434.504615 C881.759791,439.843655 874.092846,443.329525 865.92558,444.582971 L865.296356,444.67498 L865.296356,460.858947 L874.603887,470.166478 L872.770364,472 L862.675789,461.91417 L862.702024,461.88502 L862.702024,444.957733 C862.420243,444.981053 862.130688,445.001781 861.84027,445.019919 L861.404858,445.045182 L861.404858,461.88502 L861.431093,461.91417 L851.348178,471.997085 L849.517571,470.163563 L858.816356,460.861862 L858.816356,445.103482 C848.488165,445.06588 838.495936,441.463876 830.523743,434.916271 L830.074656,434.54251 L818.787854,445.826397 L818.787854,458.97587 L816.196437,458.97587 L816.196437,444.715789 L816.231417,444.715789 L828.124534,432.808097 L827.657409,432.354089 L827.194656,431.904453 L815.307368,443.794656 L815.307368,443.832551 L801.047287,443.832551 L801.047287,441.241134 L814.208421,441.241134 L825.425263,430.024291 C819.093024,422.935587 815.180481,414.022356 814.24376,404.574003 L814.188016,403.970202 L798.135223,403.970202 L788.833522,413.268988 L787,411.438381 L797.082915,401.343806 L797.112065,401.37004 L814.039352,401.37004 C814.025749,401.088259 814.021215,400.798704 814.019703,400.508286 L814.018947,400.072874 L797.112065,400.072874 L797.082915,400.099109 L787,390.016194 L788.833522,388.182672 L798.138138,397.487287 L814.091822,397.487287 C814.636312,387.765753 818.328162,378.490957 824.601332,371.058703 L824.996761,370.596599 L813.881943,359.481781 L800.72081,359.481781 L800.72081,356.887449 L814.983806,356.887449 L814.983806,356.925344 L826.745749,368.684372 C826.947854,368.478381 827.14996,368.269798 827.354656,368.06726 L827.663968,367.769069 L815.899109,356.004211 L815.8583,356.004211 L815.8583,341.747045 L818.461377,341.747045 L818.461377,354.899433 L829.579109,366.017166 C837.396299,359.233208 847.314133,355.365378 857.647992,355.058732 L858.23336,355.045182 L858.23336,339.135223 L848.934575,329.833522 L850.765182,328 L860.859757,338.082915 L860.833522,338.112065 L860.833522,355.071417 L861.478826,355.10166 L862.130688,355.138462 L862.130688,338.112065 L862.104453,338.082915 L872.187368,328 Z M868.09682,458.161642 L877.351616,467.416438 L875.519208,469.248847 L866.264411,459.99405 L868.09682,458.161642 Z M856.021383,458.159106 L857.853791,459.991515 L848.598994,469.246311 L846.766586,467.413903 L856.021383,458.159106 Z M898.238543,446.03919 L898.238543,459.127449 L895.647126,459.127449 L895.647126,446.03919 L898.238543,446.03919 Z M822.676437,445.890526 L822.676437,458.978785 L820.08502,458.978785 L820.08502,445.890526 L822.676437,445.890526 Z M917.276275,437.4983 L917.276275,440.089717 L904.188016,440.089717 L904.188016,437.4983 L917.276275,437.4983 Z M814.138462,437.352551 L814.138462,439.943968 L801.050202,439.943968 L801.050202,437.352551 L814.138462,437.352551 Z M799.002109,404.932272 L800.834518,406.76468 L791.579721,416.019477 L789.747313,414.187069 L799.002109,404.932272 Z M918.992055,404.350312 L928.246852,413.605109 L926.414443,415.437517 L917.159646,406.18272 L918.992055,404.350312 Z M791.582257,385.434447 L800.837053,394.689243 L799.004645,396.521652 L789.749848,387.266855 L791.582257,385.434447 Z M926.414917,384.850426 L928.247326,386.682834 L918.992529,395.937631 L917.160121,394.105222 L926.414917,384.850426 Z M813.809069,360.781862 L813.809069,363.373279 L800.72081,363.373279 L800.72081,360.781862 L813.809069,360.781862 Z M917.605668,360.636113 L917.605668,363.22753 L904.517409,363.22753 L904.517409,360.636113 L917.605668,360.636113 Z M822.347045,341.747045 L822.347045,354.835304 L819.755628,354.835304 L819.755628,341.747045 L822.347045,341.747045 Z M898.567935,341.598381 L898.567935,354.68664 L895.976518,354.68664 L895.976518,341.598381 L898.567935,341.598381 Z M874.937248,330.752223 L876.769656,332.584631 L867.51486,341.839428 L865.682451,340.00702 L874.937248,330.752223 Z M848.014973,330.751748 L857.26977,340.006545 L855.437362,341.838954 L846.182565,332.584157 L848.014973,330.751748 Z" id="b-cell"></path>
        </g>
    </g>
</svg>